<?xml version="1.0" encoding="UTF-8" standalone="no"?>

<svg
	xmlns:xlink="http://www.w3.org/1999/xlink"
	xmlns:svg="http://www.w3.org/2000/svg"
	xmlns="http://www.w3.org/2000/svg"
	xmlns:mingh="http://www.minghworld.com"
	xmlns:sodipodi="http://sodipodi.sourceforge.net/DTD/sodipodi-0.dtd"
	xmlns:inkscape="http://www.inkscape.org/namespaces/inkscape"
	xmlns:dc="http://purl.org/dc/elements/1.1/"
	xmlns:cc="http://creativecommons.org/ns#"
	xmlns:rdf="http://www.w3.org/1999/02/22-rdf-syntax-ns#"
	width="300px"
	height="300px" >
   
   <g>
		<!-- DSK -->
		<path id="dsk" style="fill:none;stroke:#fb0;stroke-width:0.25px;" 
			d="M 151.78,128.24 C 152.1,128.0 152.37,127.71 152.57,127.37 C 152.77,127.03 152.91,126.66 152.97,126.27 C 153.02,125.88 153.01,125.48 152.91,125.1 C 152.82,124.72 152.65,124.36 152.41,124.04 C 152.18,123.72 151.88,123.46 151.55,123.25 C 151.21,123.05 150.83,122.91 150.45,122.86 C 150.06,122.8 149.66,122.82 149.28,122.91 C 148.9,123.01 148.53,123.18 148.22,123.41 C 147.9,123.64 147.63,123.94 147.43,124.28 C 147.23,124.61 147.09,124.99 147.03,125.38 C 146.98,125.77 146.99,126.17 147.09,126.55 C 147.18,126.93 147.35,127.29 147.59,127.61 C 147.82,127.92 148.12,128.19 148.45,128.39 C 148.79,128.6 149.17,128.73 149.55,128.79 C 149.94,128.85 150.34,128.83 150.72,128.73 C 151.1,128.64 151.47,128.47 151.78,128.24 z M 180.0,150.0 C 180.0,157.97 176.85,165.58 171.21,171.21 C 165.58,176.84 157.97,180.0 150.0,180.0 C 142.03,180.0 134.42,176.84 128.79,171.21 C 123.15,165.58 120.0,157.97 120.0,150.0 C 120.0,142.03 123.15,134.42 128.79,128.79 C 134.42,123.16 142.03,120.0 150.0,120.0 C 157.97,120.0 165.58,123.16 171.21,128.79 C 176.85,134.42 180.0,142.03 180.0,150.0 z" />
		
		<!-- HRT -->
		<path id="hrt" style="fill:none;stroke:#fb0;stroke-width:0.25px;" transform="matrix(1 0 0 1 0 0)"
			d="M 150.2,127.14 C 150.52,126.9 150.79,126.61 150.99,126.27 C 151.19,125.93 151.33,125.56 151.39,125.17 C 151.45,124.78 151.43,124.38 151.33,124.0 C 151.24,123.62 151.07,123.26 150.83,122.94 C 150.6,122.62 150.31,122.36 149.97,122.15 C 149.63,121.95 149.26,121.82 148.87,121.76 C 148.48,121.7 148.08,121.72 147.7,121.81 C 147.32,121.91 146.96,122.08 146.64,122.31 C 146.32,122.54 146.05,122.84 145.85,123.18 C 145.65,123.51 145.51,123.89 145.46,124.28 C 145.4,124.67 145.42,125.07 145.51,125.45 C 145.61,125.83 145.78,126.19 146.01,126.51 C 146.24,126.82 146.54,127.09 146.88,127.29 C 147.21,127.5 147.59,127.63 147.98,127.69 C 148.36,127.75 148.76,127.73 149.15,127.63 C 149.53,127.54 149.89,127.37 150.2,127.14 z M 166.04,138.31 C 165.88,139.56 166.32,140.15 167.55,140.37 C 168.68,140.56 169.8,140.82 170.87,141.23 C 172.72,141.94 174.41,143.09 175.88,144.47 C 177.5,146.01 178.84,147.83 179.79,149.83 C 180.71,151.78 181.27,153.89 181.49,156.04 C 181.69,158.1 181.58,160.17 181.13,162.17 C 180.65,164.32 179.76,166.37 178.59,168.22 C 177.44,170.06 176.02,171.7 174.41,173.13 C 172.67,174.67 170.72,175.94 168.65,176.97 C 166.46,178.07 164.14,178.89 161.77,179.52 C 159.02,180.26 156.2,180.72 153.39,180.95 C 150.5,181.17 147.63,181.14 144.67,180.98 C 141.27,180.79 137.76,180.45 134.72,179.86 C 132.49,179.43 130.51,178.87 128.01,177.99 C 126.33,177.39 124.41,176.65 122.85,175.88 C 121.95,175.42 121.18,174.96 120.38,174.43 C 119.99,174.17 119.76,173.86 119.63,173.41 C 119.36,172.49 119.14,171.61 118.97,170.63 C 118.69,168.91 118.54,166.86 118.47,165.07 C 118.36,162.42 118.4,160.36 118.65,158.11 C 118.98,155.03 119.68,151.57 120.5,148.27 C 121.22,145.4 122.03,142.64 123.09,139.95 C 124.13,137.32 125.41,134.76 126.92,132.36 C 128.21,130.27 129.69,128.3 131.38,126.52 C 132.97,124.85 134.76,123.36 136.74,122.15 C 138.57,121.02 140.57,120.16 142.65,119.6 C 144.78,119.03 147.0,118.78 149.19,118.95 C 151.23,119.09 153.25,119.61 155.15,120.41 C 157.14,121.24 159.0,122.39 160.59,123.85 C 162.22,125.34 163.58,127.16 164.56,129.17 C 165.46,130.97 166.05,132.93 166.19,134.91 C 166.26,136.04 166.18,137.18 166.04,138.31 z" />
		
		<!-- PEB -->
		<path id="peb" style="fill:none;stroke:#fb0;stroke-width:0.25px;" transform="matrix(1 0 0 1 0 0)"
			d="M 150.06,127.48 C 150.36,127.23 150.62,126.93 150.81,126.58 C 151.0,126.24 151.12,125.86 151.17,125.47 C 151.21,125.08 151.18,124.68 151.07,124.3 C 150.96,123.93 150.78,123.57 150.54,123.26 C 150.29,122.96 149.99,122.7 149.64,122.51 C 149.3,122.32 148.92,122.19 148.53,122.15 C 148.14,122.11 147.74,122.14 147.36,122.25 C 146.98,122.36 146.63,122.54 146.32,122.78 C 146.01,123.03 145.76,123.33 145.56,123.68 C 145.37,124.02 145.25,124.4 145.21,124.79 C 145.16,125.18 145.2,125.58 145.3,125.96 C 145.41,126.33 145.6,126.69 145.84,127.0 C 146.09,127.3 146.39,127.56 146.73,127.75 C 147.08,127.94 147.46,128.07 147.85,128.11 C 148.24,128.16 148.64,128.12 149.02,128.01 C 149.39,127.91 149.75,127.72 150.06,127.48 z M 161.35,123.62 C 172.18,132.1 178.79,144.87 179.46,158.61 C 179.95,168.68 173.01,177.6 163.13,179.59 C 152.32,181.77 143.03,180.82 132.89,176.49 C 124.83,173.04 119.87,164.84 120.58,156.09 C 121.49,144.85 126.12,134.23 133.73,125.91 C 140.92,118.05 152.95,117.05 161.35,123.62 z" />
		
		<!-- TAG -->
		<path id="tag" style="fill:none;stroke:#fb0;stroke-width:0.25px;" 
			d="M 150.03,105.72 C 149.61,105.72 149.18,105.74 148.75,105.75 146.71,105.8 144.63,106.01 142.63,106.34 137.27,107.23 132.18,109.02 127.47,111.72 L 126.66,112.22 125.81,112.72 124.28,114.06 122.91,115.56 C 122.48,116.09 122.11,116.67 121.88,117.31 121.63,118.02 121.69,118.57 121.69,119.31 L 121.69,180.38 121.69,181.38 C 121.69,182.07 121.87,182.68 122.19,183.31 122.51,183.92 122.91,184.44 123.38,184.97 124.29,186.0 125.27,186.91 126.44,187.66 135.68,193.28 146.67,195.43 157.38,193.66 162.68,192.81 167.79,191.01 172.47,188.31 173.67,187.67 174.8,186.76 175.69,185.97 L 177.06,184.47 C 177.49,183.9 177.82,183.33 178.06,182.69 178.31,181.94 178.34,181.43 178.34,180.72 L 178.34,119.16 178.34,118.66 C 178.31,117.95 178.14,117.33 177.78,116.69 177.46,116.09 177.05,115.56 176.59,115.03 175.66,114.0 174.74,113.09 173.53,112.34 L 171.91,111.41 170.22,110.44 166.63,108.88 C 164.11,107.93 161.56,107.13 158.94,106.59 155.99,106.02 153.01,105.72 150.03,105.72 z M 150.0,109.25 C 151.74,109.25 153.19,110.7 153.19,112.44 153.19,114.21 151.74,115.66 150.0,115.66 148.23,115.66 146.81,114.21 146.81,112.44 146.81,110.7 148.23,109.25 150.0,109.25 z " />
	</g>

</svg>
